<?xml version="1.0" encoding="UTF-8"?>
<svg version="1.1" xmlns="http://www.w3.org/2000/svg" width="2406" height="2001">
<path d="M0 0 C5.95732239 4.36704284 8.61496835 9.52069002 11.63525391 16.07373047 C12.07023193 17.0025 12.50520996 17.93126953 12.95336914 18.88818359 C21.65355681 37.81113253 26.94572132 58.44495675 20.01025391 78.89013672 C10.75795489 101.15348122 -5.48621072 119.80465886 -20.07958984 138.71826172 C-22.05259587 141.27561894 -24.02010145 143.83704102 -25.98339844 146.40185547 C-27.0006844 147.72515429 -28.02252029 149.04495841 -29.046875 150.36279297 C-42.1376145 167.22803483 -53.39323512 184.80522472 -62.36474609 204.19873047 C-62.71601562 204.94574219 -63.06728516 205.69275391 -63.42919922 206.46240234 C-90.72187729 265.04298296 -98.94366634 336.91312795 -76.92724609 398.51123047 C-60.45447175 446.96628139 -60.45447175 446.96628139 -28.36474609 484.19873047 C-21.84631458 479.68415471 -16.38683283 474.4295683 -10.86474609 468.76123047 C-1.80807117 459.50830336 -1.80807117 459.50830336 2.35400391 455.97607422 C8.8081219 450.44133022 14.66042426 444.23897795 20.63525391 438.19873047 C23.09056164 435.71653981 25.54936237 433.23788405 28.01025391 430.76123047 C28.82937256 429.92966431 28.82937256 429.92966431 29.66503906 429.08129883 C32.5486385 426.17986718 35.49832831 423.41449721 38.59423828 420.73974609 C42.54771962 417.31916434 46.24616845 413.70010776 49.91650391 409.97998047 C50.57428833 409.31840942 51.23207275 408.65683838 51.90979004 407.97521973 C53.98742665 405.88550312 56.06176017 403.79255732 58.13525391 401.69873047 C60.87183541 398.93531347 63.61187654 396.17539325 66.35400391 393.41748047 C67.27155457 392.4874823 67.27155457 392.4874823 68.2076416 391.53869629 C71.91240445 387.81333887 75.75058458 384.31765113 79.72570801 380.88342285 C82.54513055 378.39599393 85.18700945 375.75301649 87.82275391 373.07373047 C88.36955811 372.52313965 88.9163623 371.97254883 89.47973633 371.40527344 C91.20074897 369.6722223 92.91843222 367.93593274 94.63525391 366.19873047 C107.55796352 353.1226139 107.55796352 353.1226139 113.81103516 347.80029297 C117.25603141 344.77577805 120.42672294 341.46992805 123.63525391 338.19873047 C128.22527541 333.5190601 132.8865033 329.0359722 137.85400391 324.75732422 C140.05225438 322.83385505 142.10180542 320.7947466 144.13525391 318.69873047 C147.40249765 315.392657 150.75541021 312.29127586 154.28369141 309.26904297 C156.77952686 307.07171275 159.20326375 304.80939273 161.62695312 302.53320312 C167.22516898 297.27727561 172.8930487 292.21749463 178.89306641 287.41748047 C181.30708579 285.46425681 183.66303944 283.45807901 186.00854492 281.42358398 C207.55497542 262.82982494 231.79404112 246.10597315 256.63525391 232.19873047 C257.52905762 231.6945459 258.42286133 231.19036133 259.34375 230.67089844 C322.2791749 195.37458889 393.84648728 175.34416011 465.63525391 169.19873047 C466.70042236 169.10446777 467.76559082 169.01020508 468.86303711 168.91308594 C516.70913873 165.17631041 563.81549573 170.1190914 611.08192444 176.99873352 C616.5096156 177.78083942 621.92399676 178.47868207 627.38134766 179.01513672 C649.11747743 181.27151646 669.33386303 189.50716103 689.63525391 197.19873047 C690.96296814 197.70161591 690.96296814 197.70161591 692.31750488 198.21466064 C710.24061122 205.02388475 728.13903983 211.97772692 745.47705078 220.18359375 C747.74454371 221.25013624 750.02438266 222.28636788 752.30712891 223.31982422 C777.60580937 234.88056085 801.15739493 249.8898896 823.63525391 266.19873047 C824.78791748 267.03041748 824.78791748 267.03041748 825.96386719 267.87890625 C837.15624004 275.96672535 848.02842561 284.3578172 858.63525391 293.19873047 C859.21500977 293.67938965 859.79476562 294.16004883 860.39208984 294.65527344 C868.36031851 301.26958818 876.08160256 308.1150841 883.63525391 315.19873047 C884.26818359 315.77751953 884.90111328 316.35630859 885.55322266 316.95263672 C899.48789304 330.15912955 911.64166184 347.29121771 912.68994141 366.86669922 C912.39570541 384.79407793 899.55638433 397.29906883 888.63525391 410.19873047 C887.60773155 411.4238411 886.58037747 412.64909291 885.55322266 413.87451172 C878.87924841 421.79049116 871.89006138 429.38023348 864.78033447 436.90486145 C862.73422525 439.09289421 860.71195244 441.30153197 858.69142532 443.5131588 C851.88156816 450.94810971 844.84900545 458.13230902 837.71337891 465.25341797 C836.51643621 466.45103714 835.31964174 467.64880447 834.12298584 468.84671021 C831.6405724 471.33058163 829.1564014 473.81267727 826.67089844 476.29345703 C823.50509499 479.45353293 820.34384662 482.61812174 817.18388748 485.78404045 C814.72343339 488.24812529 812.2605815 490.70980248 809.79701996 493.17078018 C808.63063199 494.33650744 807.46496862 495.50296023 806.30008698 496.67019272 C800.78476971 502.19421041 795.28618443 507.69221052 789.31890869 512.73526001 C786.08676919 515.54470808 783.13181201 518.64271064 780.13525391 521.69873047 C775.75010475 526.13128664 771.35713487 530.44201348 766.58837891 534.46435547 C763.48820261 537.21731202 760.61547881 540.19829082 757.70507812 543.1484375 C754.46096508 546.41959421 751.09872568 549.46866679 747.59619141 552.45654297 C744.54433402 555.16795411 741.72380625 558.10210194 738.85791016 561.00732422 C736.20823951 563.61974115 733.42352588 566.03175668 730.60009766 568.45263672 C727.81963559 570.92354436 725.24407173 573.58039987 722.63525391 576.22998047 C720.07220162 578.75298506 717.36179567 581.07435864 714.63525391 583.41748047 C711.84639858 585.90130475 709.25838407 588.56584484 706.63916016 591.22607422 C704.05279239 593.77210876 701.31990111 596.11894603 698.56884766 598.48388672 C696.68030793 600.15877346 694.90369743 601.89820634 693.13525391 603.69873047 C690.74472224 606.13262779 688.28479128 608.41228606 685.69775391 610.63623047 C682.88949043 613.05490826 680.23554798 615.55772729 677.63525391 618.19873047 C674.41366841 621.47075175 671.04933245 624.49189102 667.56884766 627.48388672 C665.68030793 629.15877346 663.90369743 630.89820634 662.13525391 632.69873047 C659.74472224 635.13262779 657.28479128 637.41228606 654.69775391 639.63623047 C651.88949043 642.05490826 649.23554798 644.55772729 646.63525391 647.19873047 C643.43495869 650.4490303 640.09300815 653.44597292 636.63525391 656.41748047 C634.55188313 658.27298257 632.59244184 660.21096148 630.63525391 662.19873047 C628.07535256 664.7985523 625.46745851 667.26141445 622.69775391 669.63623047 C619.70723675 672.20538317 616.90408706 674.89190303 614.13525391 677.69873047 C610.77410909 681.10591837 607.29824187 684.27331221 603.66650391 687.38623047 C601.39886818 689.40965927 599.2694844 691.53526394 597.13525391 693.69873047 C593.77073888 697.10933474 590.29224574 700.28031932 586.65478516 703.39404297 C584.44521222 705.36855496 582.39022442 707.45117638 580.32275391 709.57373047 C575.40977406 714.53701386 570.1029222 718.86451622 564.63525391 723.19873047 C563.56287348 724.0727917 562.49128343 724.94782336 561.42041016 725.82373047 C500.01064914 775.63109545 414.52933391 800.79921327 337.63525391 813.19873047 C336.44319336 813.3962793 335.25113281 813.59382813 334.02294922 813.79736328 C296.99890977 819.73014275 258.77865935 818.70736574 221.63525391 814.19873047 C220.94657227 814.11623047 220.25789063 814.03373047 219.54833984 813.94873047 C187.00074258 810.0145718 154.81947361 803.36937681 123.63525391 793.19873047 C122.56307617 792.85229492 121.49089844 792.50585938 120.38623047 792.14892578 C69.38314425 775.52310614 21.79238948 750.38626273 -20.36474609 717.19873047 C-21.26064453 716.50134766 -22.15654297 715.80396484 -23.07958984 715.08544922 C-29.40379106 710.10002045 -35.53269588 704.87887105 -41.65722656 699.65185547 C-43.34756021 698.21335592 -45.04486101 696.7834761 -46.74365234 695.35498047 C-53.92656303 689.28920627 -60.8700736 683.01562911 -67.68432617 676.53759766 C-70.9097554 673.47495955 -74.1674268 670.47547168 -77.52880859 667.56201172 C-80.60674514 664.89040466 -83.51988619 662.12047848 -86.36474609 659.19873047 C-89.21998292 656.30883219 -92.07974805 653.51421302 -95.17724609 650.88623047 C-103.13091568 644.06418054 -110.59459498 636.46642118 -117.36865234 628.47607422 C-119.64597251 625.8778792 -122.00774046 623.37104878 -124.37890625 620.85864258 C-130.67511739 614.18492311 -136.64146931 607.37446909 -142.36474609 600.19873047 C-143.35620477 598.99653185 -144.34984439 597.7961298 -145.34521484 596.59716797 C-153.4721762 586.77637159 -161.06327306 576.64668129 -168.36474609 566.19873047 C-168.79319824 565.58771484 -169.22165039 564.97669922 -169.66308594 564.34716797 C-214.68684711 499.70138131 -239.16310193 426.35308946 -245.36474609 348.19873047 C-245.45973389 347.05686279 -245.55472168 345.91499512 -245.65258789 344.73852539 C-246.6019069 331.84213207 -246.56322605 318.93674111 -246.55224609 306.01123047 C-246.55197418 304.81274475 -246.55170227 303.61425903 -246.55142212 302.37945557 C-246.53283266 284.57848927 -246.31041181 266.91046519 -244.36474609 249.19873047 C-244.27354492 248.32490723 -244.18234375 247.45108398 -244.08837891 246.55078125 C-235.35308166 166.96762581 -188.84440566 87.54754448 -139.30224609 26.32373047 C-138.51624023 25.35173706 -138.51624023 25.35173706 -137.71435547 24.36010742 C-101.47243033 -19.83464637 -47.61393888 -32.73377145 0 0 Z M274.63525391 415.19873047 C274.04486328 415.69002441 273.45447266 416.18131836 272.84619141 416.6875 C265.6328187 422.7020134 258.58343653 428.8790841 251.63525391 435.19873047 C250.07294623 436.59477906 248.51044118 437.9906068 246.94775391 439.38623047 C235.76777883 449.47251233 224.89880467 459.80734254 214.33276367 470.53808594 C213.57793701 471.30137207 212.82311035 472.0646582 212.04541016 472.85107422 C211.38677979 473.52130615 210.72814941 474.19153809 210.04956055 474.88208008 C208.120718 476.73290291 206.16697465 478.46524759 204.13659668 480.19937134 C198.9337944 484.74267261 194.07597578 489.61763406 189.19946289 494.50512695 C188.17537676 495.5278551 187.15107866 496.55037104 186.12658691 497.57269287 C183.36608435 500.32866836 180.60871612 503.08775931 177.85206866 505.84759021 C174.95407721 508.74812982 172.05362799 511.64621014 169.15357971 514.54469299 C164.28572761 519.41073054 159.4199768 524.27886176 154.55541992 529.14819336 C148.94734242 534.7617121 143.3356718 540.37161956 137.72212166 545.97966522 C132.88522178 550.81201359 128.05029027 555.64632488 123.21697098 560.48225456 C120.33781572 563.36296141 117.45800683 566.24300612 114.57641411 569.12127495 C111.86627261 571.82850805 109.15862665 574.53821346 106.45281219 577.24977112 C105.46488948 578.2390056 104.47613436 579.22740968 103.48644447 580.21487617 C95.05147192 588.26199402 95.05147192 588.26199402 87.63525391 597.19873047 C87.63525391 598.18873047 87.63525391 599.17873047 87.63525391 600.19873047 C89.69062898 602.16193626 91.71373795 603.89517691 93.94775391 605.63623047 C94.62 606.16410156 95.29224609 606.69197266 95.98486328 607.23583984 C140.89623271 641.81144206 200.95153154 663.10406147 257.63525391 664.19873047 C258.45783691 664.21919434 259.28041992 664.2396582 260.12792969 664.26074219 C342.23553885 666.07934382 417.75987722 639.04420841 480.89111328 586.63867188 C483.34692128 584.61118649 485.83848259 582.62867351 488.32275391 580.63623047 C493.95554719 576.02374854 499.26591946 571.08972628 504.57350159 566.11169434 C506.09808047 564.69713824 507.63342301 563.29416296 509.17449951 561.89759827 C516.70552213 555.06383249 523.97236987 548.00959368 531.15478516 540.81201172 C532.30899302 539.65848022 533.46334904 538.50509696 534.61784363 537.35185242 C537.01353515 534.95761991 539.40744797 532.56162758 541.80004883 530.16430664 C544.84693511 527.11169813 547.89832619 524.0636382 550.95105457 521.01687336 C553.32678526 518.64477513 555.70010598 516.27027714 558.07272911 513.89507103 C559.19659017 512.77054946 560.32117622 511.64675193 561.44654274 510.52373695 C566.90322934 505.07596538 572.30667679 499.62491195 577.31060791 493.75042725 C578.98211001 491.79242154 580.74874973 489.95225213 582.57275391 488.13623047 C583.15927734 487.54712891 583.74580078 486.95802734 584.35009766 486.35107422 C586.24039051 484.57064454 588.16423825 482.88436997 590.1361084 481.19709778 C595.27641178 476.70515728 600.08256496 471.89904657 604.90673828 467.07250977 C605.91263497 466.06961168 606.91873414 465.06691664 607.92501831 464.06440735 C610.6334833 461.36470477 613.33876521 458.66183496 616.04317284 455.95806861 C617.73383556 454.26811961 619.42520951 452.57888581 621.11683655 450.88990211 C627.01970137 444.99625747 632.92000946 439.10006734 638.81787109 433.20141602 C644.31660062 427.70208317 649.82091249 422.20838131 655.327806 416.71722478 C660.06184721 411.99623117 664.7920536 407.27141874 669.51925516 402.54357654 C672.34045213 399.72212422 675.16319153 396.90225785 677.98979187 394.08621788 C680.64049743 391.4451491 683.28641882 388.79938176 685.92865372 386.1498394 C686.90089368 385.1765488 687.87485947 384.2049788 688.8506279 383.23522568 C690.1772695 381.91623784 691.49722478 380.59053483 692.81677246 379.26445007 C693.55856499 378.52320231 694.30035751 377.78195456 695.0646286 377.01824474 C696.85306576 375.34701013 696.85306576 375.34701013 696.63525391 373.19873047 C654.33433516 349.07710718 609.76012605 334.93046572 561.88525391 326.88623047 C560.78410248 326.70089249 560.78410248 326.70089249 559.66070557 326.5118103 C543.88023631 323.88469181 528.16223335 321.81173659 512.13525391 321.88623047 C510.1739856 321.89360229 510.1739856 321.89360229 508.1730957 321.90112305 C419.24135256 322.71076894 342.10375955 358.90918201 274.63525391 415.19873047 Z " fill="#E12D6F" transform="translate(1289.36474609375,212.80126953125)"/>
<path d="M0 0 C22.66483756 15.7480479 40.65851519 46.53661494 47.328125 73.18359375 C54.6285939 114.65195486 50.75722011 159.99758598 26.43237305 195.36767578 C21.06423819 202.94559983 15.1315162 210.03321637 9 217 C8.27296875 217.82757812 7.5459375 218.65515625 6.796875 219.5078125 C4.55306581 222.02586503 2.27817658 224.51298153 0 227 C-0.8556958 227.94053223 -1.7113916 228.88106445 -2.59301758 229.85009766 C-13.65033811 241.9023286 -25.25925502 253.4122899 -36.83349609 264.96386719 C-39.80195367 267.92658187 -42.76583317 270.8938298 -45.72844505 273.86238861 C-48.04134715 276.17892194 -50.3566472 278.49304684 -52.67265701 280.80647278 C-53.76647626 281.89963225 -54.85957357 282.99351465 -55.95188522 284.08818054 C-61.2373354 289.38254124 -66.54505828 294.58403276 -72.23110962 299.45349121 C-75.08904397 301.9521314 -77.74429008 304.6396504 -80.40625 307.34375 C-80.97525024 307.91653687 -81.54425049 308.48932373 -82.13049316 309.07946777 C-83.92282982 310.88385251 -85.71184316 312.6914736 -87.5 314.5 C-100.98481202 328.13842258 -100.98481202 328.13842258 -107.19335938 333.41601562 C-110.63401739 336.43263578 -113.79743102 339.73488084 -117 343 C-121.55989783 347.64895834 -126.19041822 352.09736218 -131.125 356.34765625 C-133.87938681 358.77495963 -136.43854826 361.37239012 -139 364 C-142.89117859 367.94490897 -146.85189991 371.7000639 -151.07421875 375.29296875 C-154.11661695 377.98978013 -156.92325809 380.91534396 -159.77734375 383.80859375 C-162.4270144 386.42101068 -165.21172803 388.83302621 -168.03515625 391.25390625 C-170.73378361 393.65209001 -173.24314575 396.21611524 -175.75 398.8125 C-178.37237237 401.3620287 -181.12078356 403.73723326 -183.88134766 406.13525391 C-187.22253501 409.07602241 -190.4528807 412.13056266 -193.6875 415.1875 C-195.08949069 416.50688568 -196.49183941 417.82589101 -197.89453125 419.14453125 C-198.58498535 419.79373535 -199.27543945 420.44293945 -199.98681641 421.11181641 C-207.40101746 428.06566445 -214.89400868 434.93186794 -222.46484375 441.71484375 C-225.36913352 444.33273206 -228.24765363 446.97758984 -231.125 449.625 C-235.04316239 453.22729101 -238.99597475 456.78130803 -243.01953125 460.265625 C-245.31133155 462.27264538 -247.55996752 464.32402851 -249.8125 466.375 C-253.27530082 469.50422827 -256.80679003 472.50500349 -260.4375 475.4375 C-264.24087503 478.51336588 -267.90082652 481.68753166 -271.5 485 C-275.84106897 488.98644643 -280.2900177 492.77160291 -284.87890625 496.46875 C-287.22288951 498.35804498 -289.53536737 500.28147352 -291.83984375 502.21875 C-307.96789318 515.74133857 -324.70824929 527.57607586 -343 538 C-343.8554541 538.48823242 -344.7109082 538.97646484 -345.59228516 539.47949219 C-396.76937187 568.47506289 -452.56696194 589.55617967 -510.625 599.375 C-511.33865723 599.49687683 -512.05231445 599.61875366 -512.78759766 599.74432373 C-532.29430673 603.0291586 -551.79248805 604.38959887 -571.5625 604.3125 C-572.52268036 604.31100952 -573.48286072 604.30951904 -574.47213745 604.3079834 C-644.18299256 604.11582594 -713.5518116 590.10854388 -777 561 C-778.5159375 560.30583984 -778.5159375 560.30583984 -780.0625 559.59765625 C-809.42634262 546.05358384 -837.684893 529.84379828 -863.42382812 510.19970703 C-865.95187275 508.27547975 -868.51129854 506.39336548 -871.0625 504.5 C-881.25456272 496.82179725 -891.20967974 488.91102289 -900.91015625 480.62109375 C-903.77577694 478.17696666 -906.69405522 475.80304266 -909.625 473.4375 C-914.32355951 469.61736683 -918.78213766 465.58288744 -923.234375 461.48046875 C-926.00517601 458.99535768 -928.85051362 456.64555667 -931.75 454.3125 C-935.46843938 451.31137659 -938.90938434 448.22514778 -942.21826172 444.78222656 C-943.9921894 443.00781274 -945.82915677 441.36701972 -947.73046875 439.73046875 C-962.13229444 427.21115917 -977.049007 413.93237079 -989 399 C-989.43521973 398.46213867 -989.87043945 397.92427734 -990.31884766 397.37011719 C-999.20676159 386.29463432 -1009.90141279 372.7023692 -1011 358 C-1011.09152344 356.78699219 -1011.18304687 355.57398438 -1011.27734375 354.32421875 C-1012.33750923 333.18177983 -998.51703092 316.02112221 -985 301 C-984.19175781 300.09378906 -983.38351562 299.18757813 -982.55078125 298.25390625 C-981.12862912 296.66756678 -979.70127809 295.08585019 -978.265625 293.51171875 C-977.04404772 292.15745291 -975.82835686 290.79718853 -974.65014648 289.4050293 C-969.2197187 283.02900882 -963.30411079 277.15285664 -957.37573242 271.24536133 C-955.56639067 269.44137915 -953.76245681 267.63211335 -951.95898438 265.82226562 C-946.62863401 260.4891626 -941.29846136 255.22872809 -935.55444336 250.33618164 C-933.59797821 248.65442669 -931.79139712 246.85537559 -930 245 C-926.87050336 241.75873562 -923.52992847 238.82583443 -920.13183594 235.87353516 C-916.72903483 232.88302946 -913.42529531 229.79023102 -910.125 226.6875 C-909.42955078 226.03523438 -908.73410156 225.38296875 -908.01757812 224.7109375 C-903.30408112 220.27316037 -898.71118398 215.74076504 -894.1640625 211.1328125 C-891.5191075 208.5260518 -888.7403437 206.1142557 -885.91796875 203.703125 C-883.91286093 201.92262192 -882.05476121 200.04907444 -880.1875 198.125 C-876.36765605 194.25323584 -872.26479954 190.86374347 -868.0234375 187.46484375 C-865.92790262 185.75646841 -863.87954612 184.03786122 -861.8515625 182.25390625 C-847.84353939 169.93547007 -832.7118633 159.03968364 -817 149 C-816.22994629 148.50677246 -815.45989258 148.01354492 -814.66650391 147.50537109 C-796.99344614 136.24187163 -778.73959371 126.04687737 -759.87597656 116.91357422 C-758.04251655 116.02070496 -756.22045677 115.10734826 -754.3984375 114.19140625 C-700.60713437 87.58262297 -640.49330955 73.06155266 -581 67 C-579.35064453 66.82428467 -579.35064453 66.82428467 -577.66796875 66.64501953 C-544.59232056 63.24759718 -510.04884976 63.42961237 -477 67 C-475.74445312 67.13422363 -474.48890625 67.26844727 -473.1953125 67.40673828 C-388.29563445 76.66002214 -307.24267802 104.87464403 -237 154 C-236.33919434 154.45793945 -235.67838867 154.91587891 -234.99755859 155.38769531 C-206.45273852 175.18352473 -206.45273852 175.18352473 -195 186 C-188.87197434 181.63967405 -183.36974124 176.76640139 -177.87109375 171.65625 C-175.63089569 169.58368581 -173.37282265 167.55533645 -171.0625 165.5625 C-166.39555478 161.51394918 -161.8828967 157.30027403 -157.3515625 153.1015625 C-154.28790391 150.26288859 -151.20828687 147.44234299 -148.125 144.625 C-142.92796058 139.87107202 -137.77702096 135.06879288 -132.6328125 130.2578125 C-128.64533092 126.53020752 -124.6421804 122.8205547 -120.625 119.125 C-113.43560564 112.50479845 -106.32923119 105.7970819 -99.22021484 99.09082031 C-96.97990728 96.98107829 -94.73481117 94.87655121 -92.48828125 92.7734375 C-85.67281047 86.3878048 -78.87737017 80.01165735 -72.37109375 73.30859375 C-70.42202406 71.41089986 -68.442527 69.64690617 -66.37890625 67.87890625 C-61.15764572 63.34806033 -56.35082402 58.42041978 -51.5 53.5 C-46.1567057 48.08004438 -40.82169551 42.76304705 -35.04150391 37.81005859 C-30.83195374 34.07774516 -26.90518048 30.04812026 -22.9375 26.0625 C-21.64875977 24.77956055 -21.64875977 24.77956055 -20.33398438 23.47070312 C-15.85838061 18.98826116 -11.52564062 14.44691191 -7.41992188 9.62207031 C-6 8 -6 8 -3.5625 5.6875 C-1.66029598 4.01641903 -1.66029598 4.01641903 -2 1 C-1.34 0.67 -0.68 0.34 0 0 Z M-686 257 C-687.40499756 257.67724121 -687.40499756 257.67724121 -688.83837891 258.36816406 C-710.94002108 269.0891368 -732.03555586 282.33488632 -751 298 C-751.52126465 298.42796875 -752.0425293 298.8559375 -752.57958984 299.296875 C-772.0794442 315.35354301 -790.06798073 332.56362853 -805 353 C-796.28022228 363.60513506 -786.61995951 372.42573571 -775.71582031 380.68554688 C-774.12215151 381.90642235 -772.55586213 383.16281231 -770.9921875 384.421875 C-733.89657538 414.05962255 -687.5475475 434.84880236 -641 444 C-640.24879883 444.15017578 -639.49759766 444.30035156 -638.72363281 444.45507812 C-615.02263656 449.04901308 -591.02111633 449.49735618 -567 448 C-565.34822754 447.9069458 -565.34822754 447.9069458 -563.66308594 447.81201172 C-487.6380184 443.44955187 -417.91275627 407.88259876 -362.625 356.4140625 C-361.22453936 355.12613888 -359.81738359 353.84434268 -358.36938477 352.61010742 C-352.16152453 347.31705554 -346.42666805 341.57822674 -340.67260742 335.80297852 C-338.941053 334.066064 -337.20421641 332.33456111 -335.46679688 330.60351562 C-329.76674107 324.90739044 -324.17039228 319.18929193 -319 313 C-318.51668213 312.42773682 -318.03336426 311.85547363 -317.53540039 311.26586914 C-316.20398041 309.68300238 -314.88142816 308.09328147 -313.5625 306.5 C-313.11712891 305.96375 -312.67175781 305.4275 -312.21289062 304.875 C-311.14099096 303.58411008 -310.07035103 302.29217428 -309 301 C-309.845625 299.989375 -310.69125 298.97875 -311.5625 297.9375 C-312.03816406 297.36902344 -312.51382812 296.80054688 -313.00390625 296.21484375 C-318.07416274 290.58894271 -323.41240224 285.63062584 -329.5 281.125 C-330.54692017 280.34866211 -330.54692017 280.34866211 -331.61499023 279.55664062 C-338.4793674 274.5406929 -345.56019538 270.1068115 -353 266 C-353.84981445 265.53062012 -354.69962891 265.06124023 -355.57519531 264.57763672 C-368.69971626 257.39677413 -381.92811835 251.08658926 -396 246 C-396.83176758 245.69755371 -397.66353516 245.39510742 -398.52050781 245.08349609 C-421.74553011 236.74436993 -445.60471893 231.54406174 -470 228 C-471.1353418 227.83338867 -472.27068359 227.66677734 -473.44042969 227.49511719 C-543.99321648 217.69442808 -621.72547057 225.40805779 -686 257 Z " fill="#EA2E5E" transform="translate(1095,858)"/>
<path d="M0 0 C18.58944743 -0.50526244 36.80844973 3.5984723 51.08984375 16.08203125 C64.20449063 28.62348552 80.3567263 48.06151952 81.22265625 66.90625 C81.4153381 78.04897797 80.58102407 87.56514559 76.88671875 98.15625 C76.55728271 99.14383301 76.55728271 99.14383301 76.22119141 100.15136719 C68.8616816 122.1205196 55.19054853 137.0128249 39.13671875 153.09375 C38.59356018 153.63808685 38.05040161 154.18242371 37.49078369 154.74325562 C31.46817465 160.76438903 25.36988782 166.62761677 18.88671875 172.15625 C17.27903502 173.61070517 15.6743216 175.06845895 14.07421875 176.53125 C9.80361724 180.38647386 5.39898206 184.03207515 0.92578125 187.6484375 C-2.5838581 190.54456663 -6.00352259 193.53299574 -9.42578125 196.53125 C-14.72925843 201.16484248 -20.13525179 205.60944945 -25.70239258 209.92138672 C-30.41379428 213.57856702 -35.02150999 217.35027216 -39.61328125 221.15625 C-46.46773069 226.83048857 -53.40785748 232.37700986 -60.42919922 237.84277344 C-62.67603116 239.59515903 -64.91421781 241.35840929 -67.15258789 243.12158203 C-76.88111613 250.78278067 -86.6661979 258.37135067 -96.4453125 265.96777344 C-98.75153976 267.75946008 -101.05751492 269.55147023 -103.36328125 271.34375 C-104.112146 271.92584229 -104.86101074 272.50793457 -105.63256836 273.10766602 C-109.65866377 276.23946592 -113.67771102 279.37982237 -117.68481445 282.53588867 C-119.40354862 283.88875011 -121.12549819 285.23743886 -122.84765625 286.5859375 C-124.95764685 288.23988184 -127.04612231 289.91267293 -129.12890625 291.6015625 C-154.68474606 311.98070655 -185.08839298 326.3909024 -214.11328125 341.15625 C-215.09393555 341.65753418 -216.07458984 342.15881836 -217.08496094 342.67529297 C-230.69836899 349.62595267 -244.49523891 356.15142359 -258.38723755 362.52484131 C-262.24910239 364.29680345 -266.10555317 366.07991454 -269.95822144 367.8717804 C-294.81110126 379.42282764 -319.97536275 390.22165437 -345.20422363 400.92205811 C-347.97884014 402.09921224 -350.75272395 403.2780743 -353.52636719 404.45751953 C-373.26673413 412.84827614 -393.04810992 421.12284639 -413.02197266 428.94433594 C-414.92230751 429.68934164 -416.82085139 430.43895951 -418.71630859 431.19628906 C-494.71306727 461.5317278 -582.82388026 471.12179376 -665.96325684 477.00195312 C-668.0428994 477.15119903 -670.12153177 477.31039955 -672.20019531 477.47265625 C-696.01322188 479.30318691 -719.86059031 479.36660615 -743.73014069 479.40167618 C-746.24969209 479.4061591 -748.76921611 479.41385792 -751.28875732 479.42221069 C-781.21483608 479.5078913 -811.08312949 478.53063265 -840.86328125 475.40625 C-842.06926971 475.28269638 -842.06926971 475.28269638 -843.29962158 475.15664673 C-929.00119727 466.3087037 -1014.96383913 442.59865708 -1195.11328125 360.15625 C-1195.995 359.47691406 -1196.87671875 358.79757812 -1197.78515625 358.09765625 C-1222.77095937 338.41953096 -1240.48638093 313.47533389 -1245.42578125 281.59375 C-1249.82582543 244.42974047 -1234.15479431 206.14040611 -1213.11328125 176.15625 C-1212.45328125 175.82625 -1211.79328125 175.49625 -1211.11328125 175.15625 C-1209.28833008 175.9855957 -1209.28833008 175.9855957 -1207.0703125 177.33203125 C-1206.25191895 177.82493652 -1205.43352539 178.3178418 -1204.59033203 178.82568359 C-1203.27137939 179.63900146 -1203.27137939 179.63900146 -1201.92578125 180.46875 C-1200.56428955 181.29753662 -1200.56428955 181.29753662 -1199.17529297 182.14306641 C-1193.3520819 185.71133628 -1187.62494145 189.39880146 -1181.97094727 193.22827148 C-1173.7087788 198.81592994 -1165.25413649 204.10547291 -1156.82519531 209.43652344 C-1154.31972248 211.02533786 -1151.82077936 212.62379356 -1149.32421875 214.2265625 C-1136.80596327 222.2434542 -1124.11457163 229.94566179 -1111.11328125 237.15625 C-1110.20594238 237.66124023 -1109.29860352 238.16623047 -1108.36376953 238.68652344 C-1089.98728697 248.69547173 -1070.1932847 254.91518479 -1050.39207458 261.43041992 C-1041.07634694 264.496785 -1031.78027445 267.61889188 -1022.4877224 270.75465775 C-1017.35320825 272.48611926 -1012.21677674 274.21188267 -1007.08027744 275.93744469 C-1002.85538794 277.35682446 -998.63107817 278.77785908 -994.40835571 280.20367432 C-965.61364846 289.91916716 -936.62336748 299.07689228 -906.98828125 305.90625 C-906.21420929 306.08668854 -905.44013733 306.26712708 -904.64260864 306.45303345 C-867.05629341 315.18980291 -828.76097692 320.86674046 -790.30078125 323.96875 C-789.59505981 324.02614349 -788.88933838 324.08353699 -788.16223145 324.14266968 C-766.51044667 325.86426026 -744.82677647 326.36480362 -723.11328125 326.34375 C-721.3626387 326.34284363 -721.3626387 326.34284363 -719.57662964 326.34191895 C-624.98448083 326.21020968 -537.19880407 306.41885786 -294.11328125 207.15625 C-292.549729 206.18341064 -292.549729 206.18341064 -290.95458984 205.19091797 C-280.91116092 198.92494961 -271.00490172 192.54536565 -261.44140625 185.56640625 C-257.83970852 182.94025776 -254.16832384 180.42093067 -250.48828125 177.90625 C-241.84228841 171.98835146 -233.26354646 165.97623602 -224.68652344 159.95898438 C-222.13597775 158.17215047 -219.58221704 156.39001445 -217.02734375 154.609375 C-200.11088902 142.81381554 -183.41067431 130.79635407 -167.11328125 118.15625 C-166.489375 117.67414063 -165.86546875 117.19203125 -165.22265625 116.6953125 C-157.72715468 110.89751 -150.40665391 104.93370726 -143.203125 98.77734375 C-140.33750431 96.33321666 -137.41922603 93.95929266 -134.48828125 91.59375 C-129.72808072 87.72045728 -125.18523341 83.64865008 -120.66796875 79.49609375 C-118.4863031 77.49790152 -116.28316816 75.53476111 -114.05078125 73.59375 C-101.98064621 63.08105174 -90.08321439 52.28803146 -78.859375 40.87109375 C-77.04716706 39.09131907 -75.16633568 37.4344135 -73.23828125 35.78125 C-67.2938101 30.65751451 -61.3050764 25.22276573 -56.61328125 18.90625 C-44.97812559 6.10757877 -22.32220492 1.39152589 -5.5703125 0.25 C-3.71302406 0.17913367 -1.85630352 0.09316454 0 0 Z " fill="#D82B7E" transform="translate(2278.11328125,1009.84375)"/>
</svg>
